<svg xmlns="http://www.w3.org/2000/svg" xml:space="preserve" width="801.11438" height="813.01984" viewBox="0 0 801.11437 813.01982"><defs><clipPath id="a" clipPathUnits="userSpaceOnUse"><path d="M0 841.89h595.276V0H0Z"/></clipPath></defs><g clip-path="url(#a)" transform="matrix(1.7449 0 0 -1.7449 -119.421 1141.79)"><path d="M0 0h240.267c60.028 0 109.142-49.114 109.142-109.144v-247.087c0-60.03-49.114-109.144-109.142-109.144H0c-60.029 0-109.143 49.114-109.143 109.144v247.087C-109.143-49.114-60.029 0 0 0Z" style="fill:#f9f9f9;stroke:#1d1d1b;stroke-width:.567;stroke-linecap:butt;stroke-linejoin:miter;stroke-miterlimit:22.926;stroke-dasharray:none;stroke-opacity:1" transform="translate(177.867 654.077)"/><path d="m0 0 50.692.238C63.693.3 61.624 1.665 61.985 15.418c-.329 22.257-11.931 38.667-34.735 41.468-14.916 1.833-30.707-3.096-37.81-11.244-10.301-11.82-9.851-21.921-10.282-41.233-.617-27.661 4.573-50.844 38.46-52.347 17.33-.769 36.119 6.831 39.701 21.047l-17.648 8.454C31.61-29.129 20.062-34.689 7.352-25.994-.242-20.8-.612-11.514 0 0m128.211-9.227.048-2.993c-.635-10.136-9.272-18.167-19.837-18.167-10.976 0-19.874 8.669-19.874 19.364 0 10.694 8.898 19.364 19.874 19.364 10.355 0 18.859-7.716 19.789-17.568M74.263 49.592l5.524-16.972c4.091.721 47.963 22.255 48.007-15.368l.015-.897c-6.387 5.143-14.579 8.234-23.512 8.234-20.393 0-36.927-16.109-36.927-35.977 0-19.87 16.534-35.977 36.927-35.977 9.341 0 17.871 3.381 24.374 8.953l.032-1.975-.171-5.59 18.366.244c1.04 14.294.211 31.528.212 46.142.002 23.473 1.334 39.411-18.035 51.403-20.398 12.626-40.544 1.449-54.812-2.22m93.026 29.976 20.464 5.116V55.267h26.346V37.616h-26.346v-52.438c0-10.358 4.555-16.372 28.704-11.897l2.485-16.247c-18.734-8.941-51.653-6.131-51.653 19.447v61.135h-14.837v17.651h14.837zm98.482-21.488c12.685-.089 28.223-8.1 35.044-14.836l-10.487-15.348c-10.668 5.868-26.14 17.691-38.115 6.651-3.531-3.255-4.881-9.615 1.536-14.324 6.47-4.75 19.462-7.565 30.407-13.11 10.308-5.222 18.801-12.868 18.317-26.834-.666-19.281-19.938-28.177-36.959-28.336-16.839-.156-33.495 8.185-41.95 23.515l17.139 9.208c7.053-9.653 14.302-16.109 27.626-15.348 5.624.322 12.623 5.126 13.045 10.745.996 13.227-26.946 17.358-35.299 21.23-8.46 3.921-19.329 16.16-18.674 27.115 1.122 18.755 18.513 29.812 38.37 29.672M.074 15.898c-3.571 30.648 44.256 31.342 40.172-.194Z" style="fill:#8b4a22;fill-opacity:1;fill-rule:evenodd;stroke:none" transform="translate(157.197 361.98)"/><path d="m0 0-6.417-5.45S-8.991.919-16.096.919s-11.322-2.686-11.322-10.64v-11.098c0-2.985 1.228-10.865 9.276-10.865 8.049 0 11.595 6.275 11.595 6.275l6.82-5.184s-5.35-9.821-18.143-9.821c-12.79 0-19.37 9.248-19.37 18.476 0 8.078.274 6.573.274 14.432 0 7.86 6.26 15.679 16.505 16.746C-10.216 10.308-2.754 5.371 0 0" style="fill:#5e2f27;fill-opacity:1;fill-rule:evenodd;stroke:none" transform="translate(173.758 518.775)"/><path d="M0 0h9.686s-.137-21.936-.137-27.419c0-5.485 2.138-12.961 9.549-12.961 7.412 0 10.367 3.403 10.367 12.687V-.272h9.686v-48.295h-8.322v4.372s-5.724-4.912-14.187-4.912C8.181-49.107 0-41.751 0-31.648 0-21.546-.136 0 0 0" style="fill:#5e2f27;fill-opacity:1;fill-rule:evenodd;stroke:none" transform="translate(225.733 527.197)"/><path d="M0 0h-9.686s.138 21.934.138 27.417c0 5.484-2.14 12.961-9.55 12.961-7.412 0-10.368-5.114-10.368-13.885V.271h-9.685v48.296h8.323v-4.372s2.644 5.254 13.159 4.913C-7.152 48.765 0 41.748 0 31.646S.136 0 0 0" style="fill:#c7ce23;fill-opacity:1;fill-rule:evenodd;stroke:none" transform="translate(406.846 478.088)"/><path d="M0 0h3.884c4.635 0 8.425-4.647 8.425-10.329v-11.947c0-5.678-3.79-10.327-8.425-10.327H0c-4.635 0-8.425 4.649-8.425 10.327v11.947C-8.425-4.647-4.635 0 0 0m-.687 8.457h4.985c9.208 0 16.742-7.561 16.742-16.802v-15.914c0-9.243-7.534-16.802-16.742-16.802H-.687c-9.209 0-16.742 7.559-16.742 16.802v15.914c0 9.241 7.533 16.802 16.742 16.802" style="fill:#5e2f27;fill-opacity:1;fill-rule:evenodd;stroke:none" transform="translate(195.963 519.694)"/><path d="M0 0h4.786c4.636 0 8.427-4.648 8.427-10.327v-11.948c0-5.677-3.791-10.328-8.427-10.328H0c-4.634 0-8.426 4.648-8.426 10.328v11.948C-8.426-4.648-4.635 0 0 0m-18.098 7.23v-67.662h10.505v22.513s2.167-3.412 11.731-3.412c9.565 0 17.463 8.178 17.463 16.641v16.232c0 4.776-4.079 15.837-14.871 16.371-10.792.533-14.06-2.309-15.55-5.185v4.641z" style="fill:#e62830;fill-opacity:1;fill-rule:evenodd;stroke:none" transform="translate(292.393 519.693)"/><path d="M0 0h1.234C5.73 0 9.407-3.677 9.407-8.172v-1.639c0-4.496-3.677-8.172-8.173-8.172H0c-4.496 0-8.173 3.676-8.173 8.172v1.639C-8.173-3.677-4.496 0 0 0m-14.594 19.413 3.956-6.549s4.23 3.27 11.868 2.588c7.639-.682 9.413-5.86 9.276-10.362 0 0-3.545 2.729-11.051 2.729-7.502 0-14.731-4.912-16.231-10.915-1.501-6.002-1.365-20.05 10.639-22.37 12.005-2.319 17.598 4.23 17.598 4.23v-4.504h8.188V8.642c0 17.164-23.86 20.078-34.243 10.771" style="fill:#fbbd43;fill-opacity:1;fill-rule:evenodd;stroke:none" transform="translate(338.137 504.236)"/><path d="M0 0h1.442c5.247 0 9.536-3.866 9.536-8.593v-1.727c0-4.727-4.289-8.594-9.536-8.594H0c-5.246 0-9.535 3.867-9.535 8.594v1.727C-9.535-3.866-5.246 0 0 0m13.035 4.19c1.947 1.847 5.334 5.329 12.343 2.986l.13-7.229s-4.699 1.64-7.956-1.534a17.526 17.526 0 0 0 1.711-7.585c0-9.297-7.19-16.902-15.978-16.902-5.603 0-7.448-.375-12.48-7.494-.783-1.505.616-.904.616-.904 3.088 1.804 13.262 2.52 19.834 1.231 6.482-1.146 13.043-6.962 13.274-14.908.231-7.945-11.962-15.234-11.962-15.234L8.4-56.42c4.013 4.013 9.337 6.716 4.244 12.285-5.093 5.571-17.594 2.539-23.461 1.229-5.865-1.312-7.164 5.07-6.637 9.887.529 4.82 5.192 8.288 7.016 9.589-4.457 3.007-7.428 8.282-7.428 14.258 0 9.296 7.187 16.899 15.976 16.899h5.175c3.665 0 7.048-1.323 9.75-3.537" style="fill:#61bfe7;fill-opacity:1;fill-rule:evenodd;stroke:none" transform="translate(432.376 519.612)"/></g></svg>